<svg id="Facebook" xmlns="http://www.w3.org/2000/svg" xmlns:xlink="http://www.w3.org/1999/xlink" width="110" height="110" viewBox="0 0 110 110">
  <defs>
    <style>
      .cls-1 {
        fill: #3e4c9f;
        filter: url(#filter);
      }

      .cls-1, .cls-2 {
        fill-rule: evenodd;
      }

      .cls-2 {
        fill: #fff;
      }
    </style>
    <filter id="filter" x="360" y="237" width="110" height="110" filterUnits="userSpaceOnUse">
      <feGaussianBlur result="blur" in="SourceAlpha"/>
      <feFlood result="flood" flood-color="#fff" flood-opacity="0.1"/>
      <feComposite result="composite" operator="out" in2="blur"/>
      <feOffset result="offset" dy="1"/>
      <feComposite result="composite-2" operator="in" in2="SourceAlpha"/>
      <feBlend result="blend" in2="SourceGraphic"/>
    </filter>
  </defs>
  <path id="Rounded_Rectangle_4" data-name="Rounded Rectangle 4" class="cls-1" d="M415,237c45,0,55,9,55,55,0,45-10,55-55,55-46,0-55-10-55-55C360,246,369,237,415,237Z" transform="translate(-360 -237)"/>
  <path class="cls-2" d="M380,294h8v-7h0c0-3.494.448-9.7,3.048-13.052,2.741-3.539,6.5-5.946,12.969-5.946C414.555,268,419,269.47,419,269.47L417,282a21.848,21.848,0,0,0-6.821-1.412c-3.252,0-6.162,1.135-6.162,4.313v5.524L404,294h14l-2,12H404l0.017,41L389,347V306l-9-.056V294Z" transform="translate(-360 -237)"/>
</svg>
